<?xml version="1.0" encoding="UTF-8" standalone="no"?><!-- Generator: Gravit.io --><svg xmlns="http://www.w3.org/2000/svg" xmlns:xlink="http://www.w3.org/1999/xlink" style="isolation:isolate" viewBox="966 511 185 47.541" width="185pt" height="47.541pt"><g><path d=" M 972.104 522.373 L 974.334 511.223 L 977.488 511.223 L 975.258 522.373 L 972.104 522.373 L 972.104 522.373 Z  M 986.738 511.223 L 989.828 511.223 L 987.598 522.373 L 985.002 522.373 L 981.323 516.256 L 980.096 522.373 L 977.006 522.373 L 979.236 511.223 L 981.832 511.223 L 985.528 517.324 L 986.738 511.223 L 986.738 511.223 Z  M 993.504 522.596 L 993.504 522.596 Q 992.118 522.596 990.876 522.261 L 990.876 522.261 L 990.876 522.261 Q 989.633 521.927 988.853 521.401 L 988.853 521.401 L 990.095 519.044 L 990.095 519.044 Q 990.939 519.585 991.895 519.864 L 991.895 519.864 L 991.895 519.864 Q 992.851 520.143 993.806 520.143 L 993.806 520.143 L 993.806 520.143 Q 994.714 520.143 995.216 519.88 L 995.216 519.88 L 995.216 519.88 Q 995.718 519.617 995.718 519.155 L 995.718 519.155 L 995.718 519.155 Q 995.718 518.757 995.264 518.534 L 995.264 518.534 L 995.264 518.534 Q 994.81 518.311 993.854 518.056 L 993.854 518.056 L 993.854 518.056 Q 992.771 517.77 992.054 517.475 L 992.054 517.475 L 992.054 517.475 Q 991.337 517.18 990.82 516.575 L 990.82 516.575 L 990.82 516.575 Q 990.302 515.97 990.302 514.982 L 990.302 514.982 L 990.302 514.982 Q 990.302 513.787 990.955 512.888 L 990.955 512.888 L 990.955 512.888 Q 991.608 511.988 992.819 511.494 L 992.819 511.494 L 992.819 511.494 Q 994.029 511 995.654 511 L 995.654 511 L 995.654 511 Q 996.849 511 997.884 511.247 L 997.884 511.247 L 997.884 511.247 Q 998.919 511.494 999.668 511.956 L 999.668 511.956 L 998.521 514.297 L 998.521 514.297 Q 997.868 513.883 997.08 513.668 L 997.08 513.668 L 997.08 513.668 Q 996.291 513.453 995.463 513.453 L 995.463 513.453 L 995.463 513.453 Q 994.523 513.453 993.99 513.756 L 993.99 513.756 L 993.99 513.756 Q 993.456 514.058 993.456 514.536 L 993.456 514.536 L 993.456 514.536 Q 993.456 514.95 993.918 515.173 L 993.918 515.173 L 993.918 515.173 Q 994.38 515.396 995.351 515.651 L 995.351 515.651 L 995.351 515.651 Q 996.435 515.922 997.143 516.209 L 997.143 516.209 L 997.143 516.209 Q 997.852 516.495 998.362 517.085 L 998.362 517.085 L 998.362 517.085 Q 998.872 517.674 998.872 518.63 L 998.872 518.63 L 998.872 518.63 Q 998.872 519.808 998.211 520.708 L 998.211 520.708 L 998.211 520.708 Q 997.55 521.608 996.331 522.102 L 996.331 522.102 L 996.331 522.102 Q 995.113 522.596 993.504 522.596 L 993.504 522.596 L 993.504 522.596 Z  M 1006.099 511.223 L 1006.099 511.223 Q 1008.265 511.223 1009.444 512.163 L 1009.444 512.163 L 1009.444 512.163 Q 1010.623 513.103 1010.623 514.807 L 1010.623 514.807 L 1010.623 514.807 Q 1010.623 516.209 1009.946 517.26 L 1009.946 517.26 L 1009.946 517.26 Q 1009.269 518.311 1008.018 518.884 L 1008.018 518.884 L 1008.018 518.884 Q 1006.768 519.458 1005.112 519.458 L 1005.112 519.458 L 1002.882 519.458 L 1002.308 522.373 L 999.154 522.373 L 1001.384 511.223 L 1006.099 511.223 L 1006.099 511.223 Z  M 1005.255 516.973 L 1005.255 516.973 Q 1006.306 516.973 1006.872 516.479 L 1006.872 516.479 L 1006.872 516.479 Q 1007.437 515.986 1007.437 515.078 L 1007.437 515.078 L 1007.437 515.078 Q 1007.437 514.393 1006.983 514.05 L 1006.983 514.05 L 1006.983 514.05 Q 1006.529 513.708 1005.685 513.708 L 1005.685 513.708 L 1004.028 513.708 L 1003.375 516.973 L 1005.255 516.973 L 1005.255 516.973 Z  M 1020.701 513.66 L 1015.079 513.66 L 1014.712 515.54 L 1019.666 515.54 L 1019.204 517.897 L 1014.234 517.897 L 1013.836 519.936 L 1019.682 519.936 L 1019.172 522.373 L 1010.236 522.373 L 1012.466 511.223 L 1021.195 511.223 L 1020.701 513.66 L 1020.701 513.66 Z  M 1031.927 514.775 L 1031.927 514.775 Q 1031.927 516.304 1031.114 517.411 L 1031.114 517.411 L 1031.114 517.411 Q 1030.302 518.518 1028.837 519.028 L 1028.837 519.028 L 1030.732 522.373 L 1027.435 522.373 L 1025.778 519.41 L 1024.186 519.41 L 1023.596 522.373 L 1020.442 522.373 L 1022.672 511.223 L 1027.435 511.223 L 1027.435 511.223 Q 1029.569 511.223 1030.748 512.163 L 1030.748 512.163 L 1030.748 512.163 Q 1031.927 513.103 1031.927 514.775 L 1031.927 514.775 L 1031.927 514.775 Z  M 1028.741 515.078 L 1028.741 515.078 Q 1028.741 514.393 1028.279 514.05 L 1028.279 514.05 L 1028.279 514.05 Q 1027.817 513.708 1026.989 513.708 L 1026.989 513.708 L 1025.332 513.708 L 1024.663 516.973 L 1026.543 516.973 L 1026.543 516.973 Q 1027.594 516.973 1028.168 516.479 L 1028.168 516.479 L 1028.168 516.479 Q 1028.741 515.986 1028.741 515.078 L 1028.741 515.078 L 1028.741 515.078 Z " fill="rgb(255,69,13)"/><path d=" M 971.9 524.395 L 980.634 524.395 L 985.605 540.422 L 996.29 524.395 L 1005.071 524.395 L 999.171 557.844 L 990.762 557.844 L 994.107 538.982 L 986.952 550.225 L 980.866 550.225 L 977.707 538.982 L 974.362 557.844 L 966 557.844 L 971.9 524.395 L 971.9 524.395 Z " fill="rgb(62,62,62)"/><path d=" M 1008.016 524.482 L 1004.039 543.362 L 1009.808 543.362 L 1006.994 557.771 L 1009.502 552.615 L 1017.45 536.27 L 1012.384 536.27 L 1016.018 524.482 L 1008.016 524.482 Z " fill="rgb(255,69,13)"/><path d=" M 1038.732 550.644 L 1037.431 557.891 L 1016.247 557.891 L 1022.147 524.442 L 1030.509 524.442 L 1025.91 550.644 L 1038.732 550.644 L 1038.732 550.644 Z  M 1063.779 550.644 L 1062.478 557.891 L 1039.157 557.891 L 1045.057 524.442 L 1068.379 524.442 L 1067.078 531.689 L 1052.118 531.689 L 1051.05 537.961 L 1063.408 537.961 L 1062.107 545.208 L 1049.749 545.208 L 1048.82 550.644 L 1063.779 550.644 L 1063.779 550.644 Z  M 1091.196 557.891 L 1082.369 557.891 L 1082.648 550.597 L 1074.889 550.597 L 1072.613 557.891 L 1063.74 557.891 L 1075.679 524.442 L 1091.01 524.442 L 1091.196 557.891 L 1091.196 557.891 Z  M 1083.391 532.572 L 1080.464 532.572 L 1076.794 544.372 L 1082.88 544.372 L 1083.391 532.572 L 1083.391 532.572 Z  M 1105.279 558.541 L 1105.279 558.541 L 1105.279 558.541 Q 1098.682 558.541 1096.173 555.475 L 1096.173 555.475 L 1096.173 555.475 Q 1094.455 553.338 1094.455 549.622 L 1094.455 549.622 L 1094.455 549.622 Q 1094.455 547.903 1094.826 545.859 L 1094.826 545.859 L 1096.452 536.567 L 1096.452 536.567 Q 1098.636 524.116 1111.69 524.116 L 1111.69 524.116 L 1111.69 524.116 Q 1117.079 524.116 1119.867 526.416 L 1119.867 526.416 L 1119.867 526.416 Q 1122.654 528.716 1122.654 532.711 L 1122.654 532.711 L 1122.654 532.711 Q 1122.654 534.337 1122.213 536.009 L 1122.213 536.009 L 1122.213 536.009 Q 1121.772 537.682 1121.353 538.518 L 1121.353 538.518 L 1120.889 539.354 L 1112.666 539.354 L 1112.666 539.354 Q 1113.874 537.682 1113.874 535.498 L 1113.874 535.498 L 1113.874 535.498 Q 1113.874 531.317 1110.389 531.317 L 1110.389 531.317 L 1110.389 531.317 Q 1105.697 531.317 1104.768 536.753 L 1104.768 536.753 L 1103.189 545.673 L 1103.189 545.673 Q 1102.956 546.927 1102.956 548.135 L 1102.956 548.135 L 1102.956 548.135 Q 1102.956 551.34 1106.743 551.34 L 1106.743 551.34 L 1106.743 551.34 Q 1110.529 551.34 1111.597 547.531 L 1111.597 547.531 L 1107.788 547.531 L 1108.717 542.374 L 1121.028 542.374 L 1120.285 546.37 L 1120.053 547.717 L 1120.053 547.717 Q 1118.101 558.541 1105.279 558.541 Z  M 1146.401 550.644 L 1145.1 557.891 L 1121.778 557.891 L 1127.678 524.442 L 1151 524.442 L 1149.699 531.689 L 1134.74 531.689 L 1133.671 537.961 L 1146.029 537.961 L 1144.728 545.208 L 1132.371 545.208 L 1131.441 550.644 L 1146.401 550.644 L 1146.401 550.644 Z " fill="rgb(62,62,62)"/></g></svg>